<?xml version="1.0" encoding="UTF-8"?><svg id="Ebene_2" xmlns="http://www.w3.org/2000/svg" viewBox="20 100 470 80"><defs><style>.cls-1{fill:#1b1b1c;fill-rule:evenodd;stroke-width:0px;}</style></defs><path class="cls-1" d="m27.39,136.47l7.1,1.5c1.61-5.24,7.6-5.95,10.1-3.34,2.03,2.12,1.09,3.79-.84,4.6-2.68,1.13-5.72.77-8.83,1.43-5.01,1.06-8.73,5.36-8.02,10.06.59,3.91,3.39,6.35,6.94,7.15,4.72,1.07,8.95.05,12.18-3.68v3.97h7.36v-19.98c0-4.69-1.93-7.71-4.91-9.44-7.45-4.32-18.8-1.86-21.09,7.71h0Zm7.47,12.21c.41-2.45,2.53-3.64,5.16-3.8,1.78-.1,3.78-.35,6.01-.73-.45,4.67-1.17,7.72-6.17,8.48-2.58.39-5.49-1.04-5-3.96Z"/><path class="cls-1" d="m73.85,130.63c-1.76-1.85-3.23-2.79-3.67-5.41-1.22-7.24,9.93-6.57,8.63.15-.42,2.14-2.07,3.89-4.95,5.25h0Zm-1.37,9.32l7.65,8.12c-2.98,3.65-8.84,5.4-11.07,1.63-2.56-4.32.12-7.16,3.42-9.75h0Zm12.81,2.68l-6.71-7.03c3.53-2.22,7.16-5.28,7.78-9.66.98-6.92-5.02-12.52-11.78-12.36-6.79.16-11.04,3.83-11.94,10.08-.64,4.51,1.7,7.89,4.84,10.98l.51.54c-8.9,4.92-11.27,18.42-.62,22.13,6.2,2.16,13.05.69,17.32-4.41l4.96,5.26h10.46l-10.12-10.62,6.25-6.32v-10.1l-10.93,11.51Z"/><path class="cls-1" d="m102.09,142.43c0,8.69,7.02,15.74,15.67,15.74s15.67-7.05,15.67-15.74-7.02-15.74-15.67-15.74-15.67,7.05-15.67,15.74h0Zm7.3,0c0-4.64,3.75-8.41,8.37-8.41s8.37,3.76,8.37,8.41-3.75,8.41-8.37,8.41-8.37-3.77-8.37-8.41Z"/><polygon class="cls-1" points="453.98 140.36 453.98 158.28 477.52 158.28 477.52 154.96 457.62 154.96 457.62 143.68 475.22 143.68 475.22 140.36 457.62 140.36 453.98 140.36"/><polygon class="cls-1" points="477.29 126.03 453.98 126.03 453.98 129.35 457.62 129.35 477.29 129.35 477.29 126.03"/><polygon class="cls-1" points="425.47 158.28 447.26 158.28 447.26 154.92 429.11 154.92 429.11 126.03 425.47 126.03 425.47 158.28"/><polygon class="cls-1" points="396.95 158.28 418.74 158.28 418.74 154.92 400.59 154.92 400.59 126.03 396.95 126.03 396.95 158.28"/><path class="cls-1" d="m375.9,125.8h-3.41l-14.7,32.48h3.73c6.68-14.88,4.85-10.9,12.62-28.24,7.4,16.61,6.23,14.03,12.53,28.24h3.92l-14.7-32.48Z"/><polygon class="cls-1" points="347.8 143.77 347.8 158.28 351.44 158.28 351.44 126.03 347.8 126.03 347.8 140.36 329.19 140.36 329.19 126.03 325.55 126.03 325.55 158.28 329.19 158.28 329.19 143.77 347.8 143.77"/><polygon class="cls-1" points="307.91 129.4 318.73 129.4 318.73 126.03 293.4 126.03 293.4 129.4 304.22 129.4 304.22 158.28 307.91 158.28 307.91 129.4"/><path class="cls-1" d="m269.72,134.1c0-2.95,2.67-5.25,6.86-5.25,3.32,0,6.31,1.06,9.31,3.5l2.12-2.81c-3.27-2.63-6.63-3.96-11.33-3.96-6.13,0-10.59,3.69-10.59,8.84s3.41,7.74,10.83,9.35c6.77,1.43,8.38,3.13,8.38,6.17,0,3.27-2.86,5.53-7.19,5.53s-7.69-1.52-11.06-4.56l-2.26,2.67c3.87,3.46,8.06,5.16,13.18,5.16,6.4,0,11.01-3.59,11.01-9.17,0-4.98-3.32-7.6-10.5-9.17-7.09-1.52-8.75-3.22-8.75-6.31Z"/><polygon class="cls-1" points="254.24 151.88 233.92 126.03 230.51 126.03 230.51 158.28 234.06 158.28 234.06 131.84 254.88 158.28 257.79 158.28 257.79 126.03 254.24 126.03 254.24 151.88"/><path class="cls-1" d="m221.9,126.03h-3.64v18.75c0,7.05-3.78,10.64-9.72,10.64s-9.86-3.92-9.86-10.87v-18.52h-3.64v18.75c0,9.12,5.44,14,13.41,14s13.45-4.88,13.45-14.28v-18.47Z"/><polygon class="cls-1" points="176.16 140.13 189.98 126.03 185.28 126.03 166.76 145.29 166.76 126.03 163.12 126.03 163.12 158.28 166.76 158.28 166.76 149.62 173.62 142.66 186.01 158.28 190.57 158.28 176.16 140.13"/><path class="cls-1" d="m147.59,99.99c-1.71,28.02-1.71,56.31,0,84.33,1.71-28.02,1.71-56.31,0-84.33Z"/></svg>