<svg xml:space="preserve" style="enable-background:new 0 0 841.89 595.28" viewBox="50 180 841.89 245.28"><path d="M113.67 184.53h62.63v14.33h-45.71v23.76h43.26v14.33h-43.26v37.97h-16.92v-90.39zM190.12 184.53h16.92v90.39h-16.92v-90.39zM225.4 184.53h16.92v76.06h45.46v14.33H225.4v-90.39zM303.49 184.53h27.25l22.73 67.28c1.03 3.23 1.81 5.68 2.32 8.26.65-2.58 1.29-5.04 2.32-8.26l20.66-67.28h28.15v90.39h-16.27V214.1c0-4.65.13-9.56.52-16.01l-24.79 76.84h-21.82l-25.44-74.9c.39 4.91.52 9.43.52 14.08v60.82H303.5v-90.4zM423.21 184.53h62.63v14.33h-45.71v23.76h43.26v14.33h-43.26v37.97h-16.92v-90.39zM499.66 184.53h62.89v14.33h-45.97v22.08h44.03v14.46h-44.03v25.18h47.91v14.33h-64.83v-90.38zM573.27 243.93h17.56c.9 12.53 11.11 18.98 23.12 18.98 10.07 0 18.21-3.62 18.21-12.4 0-6.84-5.04-10.72-14.98-12.53l-15.37-2.97c-14.21-2.71-25.31-11.11-25.31-25.57 0-16.01 14.85-27.25 35.25-27.25 22.73 0 35.25 12.14 36.29 29.7h-17.56c-.39-8.26-6.33-15.37-19.76-15.37-9.81 0-17.3 4.13-17.3 11.49 0 6.97 6.07 9.43 15.24 11.23l15.24 2.97c14.08 2.71 26.21 10.85 26.21 26.08 0 16.66-13.69 28.93-36.93 28.93-24.29.03-38.49-13.14-39.91-33.29zM683.81 198.86h-30.22v-14.33h77.22v14.33h-30.09v76.06H683.8v-76.06zM90.56 297.46h27.25l22.73 67.28c1.03 3.23 1.81 5.68 2.32 8.26.65-2.58 1.29-5.04 2.32-8.26l20.66-67.28H194v90.39h-16.27v-60.82c0-4.65.13-9.56.52-16.01l-24.79 76.84h-21.82l-25.44-74.9c.39 4.91.52 9.43.52 14.08v60.82H90.56v-90.4zM269.29 297.46v53.33c0 16.53-6.97 25.05-19.76 25.05-12.91 0-19.76-8.26-19.76-25.05v-53.33h-17.05v55.91c0 23.5 13.69 36.8 36.8 36.8 22.99 0 36.67-13.3 36.67-36.8v-55.91h-16.9zM305.06 297.46h24.15l40.55 66.63c-.52-3.87-.77-8.78-.77-13.56v-53.07h16.92v90.39h-21.05l-43.65-71.54c.77 5.17.77 8.52.77 12.53v59.01h-16.92v-90.39zM400.62 342.01c0-29.06 19.37-46.88 44.94-46.88 22.08 0 37.97 12.66 40.29 34.09h-17.56c-1.68-11.75-9.43-19.76-22.73-19.76-16.01 0-27.51 12.27-27.51 32.54 0 21.05 11.36 33.83 27.12 33.83 13.43 0 22.34-8.65 24.15-20.66h16.92c-2.2 20.92-17.3 34.99-41.58 34.99-26.86.01-44.04-17.42-44.04-48.15zM499.67 297.46h16.92v36.93h41.71v-36.93h16.92v90.39H558.3v-39.13h-41.71v39.13h-16.92v-90.39zM592.89 297.46h62.89v14.33H609.8v22.08h44.03v14.46H609.8v25.18h47.91v14.33h-64.83v-90.38zM673.08 297.46h24.15l40.55 66.63c-.52-3.87-.77-8.78-.77-13.56v-53.07h16.92v90.39h-21.05l-43.65-71.54c.78 5.17.78 8.52.78 12.53v59.01h-16.92v-90.39z"/><path d="m261.21 297.45-11.73-11.73-11.73 11.73 8.13 8.13c.93.93.93 2.43 0 3.35l-8.13 8.13 11.73 11.73 11.73-11.73-8.13-8.13a2.36 2.36 0 0 1 0-3.35l8.13-8.13z"/></svg>