<svg xmlns="http://www.w3.org/2000/svg" width="201.333" height="49.333"><path d="m484.93 355.891-60.668-72.129v72.129H393.25V198.602h31.012v43.589l19.547 22.688 44.261-66.277h37.301l-61.34 90.097L522 355.891h-37.07M615.25 198.602v11.687c-4.488-4.719-15.5-13.258-35.27-13.258-27.421 0-41.808 19.309-41.808 42.008v82.691h30.34v-76.839c0-15.731 8.097-23.153 21.117-23.153 17.082 0 24.949 12.153 24.949 27.422v72.57h30.332V198.602h-29.66M746.699 198.602V275c0 14.609-8.09 22.469-21.347 22.469-14.84 0-26.512-9.668-26.512-29.438v-69.429H668.5V321.73h29.891v-13.031c6.961 8.313 19.308 14.602 35.05 14.602 27.411 0 43.579-15.492 43.579-40.442v-84.257h-30.321M847.141 299.93c-8.321 0-20-2.231-20-12.34 0-4.731 3.148-8.309 8.539-9.891 12.129-3.597 33.699-3.379 48.98-11.238 9.649-4.941 17.301-13.262 17.301-28.762 0-21.347-11.68-40.668-55.051-40.668-46.289 0-52.582 25.168-52.582 40.668h29.891c0-12.578 11.23-16.621 24.261-16.621 16.629 0 22.7 5.844 22.7 13.703 0 9.449-11.91 11.231-25.852 13.028-7.187.902-14.59 2.019-21.558 4.043-14.391 4.269-26.961 12.82-26.961 33.707 0 24.48 22.921 37.742 51.23 37.742 46.27 0 50.539-28.75 50.539-37.742h-29.879c0 9.89-8.539 14.371-21.558 14.371M961.039 197.48c-23.809 0-32.578 8.532-32.578 28.758v70.102h-18.652v25.39h18.652v34.161h30.34V321.73h27.629v-25.39h-27.629V235c0-9.211 2.469-10.781 12.359-10.781 5.84 0 12.578.453 12.578.453v-25.621s-9.879-1.571-22.699-1.571M1076.54 278.371v4.27c0 9.668-4.05 15.961-22.25 15.961-22.91 0-23.36-12.821-23.36-16.864h-29.22c0 18.192 7.65 41.563 53.48 41.563 43.59 0 51.68-21.781 51.68-39.539v-67.864c0-9.429 1.58-17.296 1.58-17.296h-31.02v12.359c-8.52-8.77-20.89-13.93-38.18-13.93-24.28 0-42.699 13.93-42.699 38.649 0 28.082 26.739 34.609 37.519 36.172zm0-23.133s-21.35-3.16-31.02-4.957c-4.94-.89-9.65-2.019-13.01-4.722-2.93-2.239-4.73-5.618-4.73-10.11 0-3.359 1.35-14.82 18.21-14.82 9.88 0 18.64 3.59 23.35 8.301 5.85 6.07 7.2 13.941 7.2 19.781v6.527M1192.03 291.18c-19.54 0-31.22-7.418-31.22-26.961v-65.617h-30.35v123.136h29.22v-18.207c5.61 11.239 17.07 18.207 31.9 18.207h8.99V291.18h-8.54M1209.56 259.488c0 41.801 26.05 63.813 59.77 63.813 37.07 0 56.62-27.18 56.62-63.582v-6.52h-84.94c0-13.918 5.6-31 27.87-31 12.13 0 22.01 6.063 24.48 17.52l30.79-.68c-3.81-24.48-22.25-42.008-54.82-42.008-34.4 0-59.77 20.668-59.77 62.457zM1293.81 275c-.92 16.859-12.35 23.371-24.7 23.371-14.17 0-25.41-8.762-26.97-23.371h51.67M1418.3 278.371v4.27c0 9.668-4.04 15.961-22.24 15.961-22.93 0-23.38-12.821-23.38-16.864h-29.21c0 18.192 7.64 41.563 53.5 41.563 43.57 0 51.68-21.781 51.68-39.539v-67.864c0-9.429 1.56-17.296 1.56-17.296h-31.01v12.359c-8.54-8.77-20.91-13.93-38.19-13.93-24.27 0-42.7 13.93-42.7 38.649 0 28.082 26.72 34.609 37.51 36.172zm0-23.133s-21.33-3.16-31.02-4.957c-4.94-.89-9.65-2.019-13.02-4.722-2.92-2.239-4.73-5.618-4.73-10.11 0-3.359 1.35-14.82 18.22-14.82 9.88 0 18.65 3.59 23.36 8.301 5.84 6.07 7.19 13.941 7.19 19.781v6.527M1472.23 198.602h30.34v166.269h-30.34V198.602M505.371 158.859l-31.68-114.398-31.679 114.398H393.25V1.559h31.012v117.07L457.52 1.559h32.351l33.258 117.07V1.559h31v157.3h-48.758M655.25 1.559v11.68C650.75 8.53 639.738 0 619.969 0c-27.41 0-41.789 19.32-41.789 42v82.68h30.332V47.84c0-15.719 8.09-23.13 21.117-23.13 17.082 0 24.941 12.13 24.941 27.411v72.559h30.34V1.559Zm-61.352 164.043h30.34v-29h-30.34zm45.84 0h30.34v-29h-30.34v29M786.699 1.559v76.39c0 14.621-8.09 22.473-21.359 22.473-14.82 0-26.5-9.652-26.5-29.422V1.559h-30.352V124.68h29.903v-13.032c6.961 8.332 19.32 14.622 35.05 14.622 27.411 0 43.579-15.5 43.579-40.442V1.558h-30.321M834.328 62.219c0 42.929 24.942 64.051 58.633 64.051 30.34 0 51.91-16.18 55.059-46.97h-31.008c-1.563 13.481-10.114 21.802-23.602 21.802-15.941 0-27.859-11.024-27.859-37.98 0-26.942 11.469-37.962 27.187-37.962 13.032 0 22.711 7.399 24.274 20.89h31.008C945.77 19.32 927.59 0 893.41 0c-34.371 0-59.082 21.328-59.082 62.219M1043.52 1.559v76.39c0 14.621-8.08 22.473-21.34 22.473-14.83 0-26.532-9.652-26.532-29.422V1.559h-30.339V167.84h30.339v-56.192c7.642 8.332 18.882 14.622 34.622 14.622 27.4 0 43.58-15.5 43.58-40.442V1.558h-30.33M1091.15 62.46c0 41.79 26.05 63.81 59.78 63.81 37.05 0 56.62-27.2 56.62-63.579v-6.52h-84.94c0-13.94 5.61-31.01 27.87-31.01 12.13 0 22.01 6.058 24.47 17.519l30.8-.68c-3.82-24.48-22.24-42-54.82-42-34.39 0-59.78 20.672-59.78 62.46zm84.25 15.49c-.9 16.87-12.34 23.37-24.7 23.37-14.16 0-25.39-8.75-26.98-23.37h51.68M1303.69 1.559v76.39c0 14.621-8.07 22.473-21.34 22.473-14.82 0-26.5-9.652-26.5-29.422V1.559h-30.34V124.68h29.89v-13.032c6.98 8.332 19.32 14.622 35.06 14.622 27.39 0 43.58-15.5 43.58-40.442V1.558h-30.35M78.648 277.25H0v78.641h78.648V277.25M235.941 277.25h-78.652v78.641h78.652V277.25M157.289 198.602h-78.64v78.648h78.64v-78.648" transform="matrix(.13333 0 0 -.13333 0 49.333)"/></svg>